# MagicaVoxel @ Ephtracy

# group
o 

# material
mtllib Ground.mtl
usemtl palette

# normals
vn -1 0 0
vn 1 0 0
vn 0 0 1
vn 0 0 -1
vn 0 -1 0
vn 0 1 0

# texcoords
vt 0.306641 0.5
vt 0.341797 0.5
vt 0.369141 0.5
vt 0.373047 0.5
vt 0.654297 0.5

# verts
v 0 3.7 0
v 0 3.7 -2
v 0 3.9 0
v 0 3.9 -2
v 0.1 3.9 -1.7
v 0.1 3.9 -1.8
v 0.1 4 -1.7
v 0.1 4 -1.8
v 0.2 2.2 -0.2
v 0.2 2.2 -1.8
v 0.2 3.7 -0.2
v 0.2 3.7 -1.8
v 0.5 3.9 -0.3
v 0.5 3.9 -0.4
v 0.5 3.9 -1.6
v 0.5 3.9 -1.7
v 0.5 4 -0.3
v 0.5 4 -0.4
v 0.5 4 -1.6
v 0.5 4 -1.7
v 0.8 3.9 -0.8
v 0.8 3.9 -0.9
v 0.8 4 -0.8
v 0.8 4 -0.9
v 1.1 3.9 -0.8
v 1.1 3.9 -0.9
v 1.1 4 -0.8
v 1.1 4 -0.9
v 1.7 3.9 -0.2
v 1.7 3.9 -0.3
v 1.7 3.9 -1.7
v 1.7 3.9 -1.8
v 1.7 4 -0.2
v 1.7 4 -0.3
v 1.7 4 -1.7
v 1.7 4 -1.8
v 0.2 3.9 -1.7
v 0.2 3.9 -1.8
v 0.2 4 -1.7
v 0.2 4 -1.8
v 0.6 3.9 -0.3
v 0.6 3.9 -0.4
v 0.6 3.9 -1.6
v 0.6 3.9 -1.7
v 0.6 4 -0.3
v 0.6 4 -0.4
v 0.6 4 -1.6
v 0.6 4 -1.7
v 0.9 3.9 -0.8
v 0.9 3.9 -0.9
v 0.9 4 -0.8
v 0.9 4 -0.9
v 1.2 3.9 -0.8
v 1.2 3.9 -0.9
v 1.2 4 -0.8
v 1.2 4 -0.9
v 1.8 2.2 -0.2
v 1.8 2.2 -1.8
v 1.8 3.7 -0.2
v 1.8 3.7 -1.8
v 1.8 3.9 -0.2
v 1.8 3.9 -0.3
v 1.8 4 -0.2
v 1.8 4 -0.3
v 1.9 3.9 -1.7
v 1.9 3.9 -1.8
v 1.9 4 -1.7
v 1.9 4 -1.8
v 2 3.7 0
v 2 3.7 -2
v 2 3.8 -0.9
v 2 3.8 -1.1
v 2 3.9 0
v 2 3.9 -0.9
v 2 3.9 -1.1
v 2 3.9 -2
v 0 3.7 0
v 0 3.9 0
v 0.3 3.8 0
v 0.3 3.9 0
v 0.4 3.8 0
v 0.4 3.9 0
v 1.1 3.8 0
v 1.1 3.9 0
v 1.2 3.8 0
v 1.2 3.9 0
v 2 3.7 0
v 2 3.9 0
v 0.2 2.2 -0.2
v 0.2 3.7 -0.2
v 1.7 3.9 -0.2
v 1.7 4 -0.2
v 1.8 2.2 -0.2
v 1.8 3.7 -0.2
v 1.8 3.9 -0.2
v 1.8 4 -0.2
v 0.5 3.9 -0.3
v 0.5 4 -0.3
v 0.6 3.9 -0.3
v 0.6 4 -0.3
v 0.8 3.9 -0.8
v 0.8 4 -0.8
v 0.9 3.9 -0.8
v 0.9 4 -0.8
v 1.1 3.9 -0.8
v 1.1 4 -0.8
v 1.2 3.9 -0.8
v 1.2 4 -0.8
v 0.5 3.9 -1.6
v 0.5 4 -1.6
v 0.6 3.9 -1.6
v 0.6 4 -1.6
v 0.1 3.9 -1.7
v 0.1 4 -1.7
v 0.2 3.9 -1.7
v 0.2 4 -1.7
v 1.7 3.9 -1.7
v 1.7 4 -1.7
v 1.9 3.9 -1.7
v 1.9 4 -1.7
v 1.7 3.9 -0.3
v 1.7 4 -0.3
v 1.8 3.9 -0.3
v 1.8 4 -0.3
v 0.5 3.9 -0.4
v 0.5 4 -0.4
v 0.6 3.9 -0.4
v 0.6 4 -0.4
v 0.8 3.9 -0.9
v 0.8 4 -0.9
v 0.9 3.9 -0.9
v 0.9 4 -0.9
v 1.1 3.9 -0.9
v 1.1 4 -0.9
v 1.2 3.9 -0.9
v 1.2 4 -0.9
v 0.5 3.9 -1.7
v 0.5 4 -1.7
v 0.6 3.9 -1.7
v 0.6 4 -1.7
v 0.1 3.9 -1.8
v 0.1 4 -1.8
v 0.2 2.2 -1.8
v 0.2 3.7 -1.8
v 0.2 3.9 -1.8
v 0.2 4 -1.8
v 1.7 3.9 -1.8
v 1.7 4 -1.8
v 1.8 2.2 -1.8
v 1.8 3.7 -1.8
v 1.9 3.9 -1.8
v 1.9 4 -1.8
v 0 3.7 -2
v 0 3.9 -2
v 0.3 3.8 -2
v 0.3 3.9 -2
v 0.4 3.8 -2
v 0.4 3.9 -2
v 1.1 3.8 -2
v 1.1 3.9 -2
v 1.2 3.8 -2
v 1.2 3.9 -2
v 2 3.7 -2
v 2 3.9 -2
v 0.2 2.2 -0.2
v 1.8 2.2 -0.2
v 0.2 2.2 -1.8
v 1.8 2.2 -1.8
v 0 3.7 0
v 2 3.7 0
v 0.2 3.7 -0.2
v 1.8 3.7 -0.2
v 0.2 3.7 -1.8
v 1.8 3.7 -1.8
v 0 3.7 -2
v 2 3.7 -2
v 0 3.9 0
v 0.3 3.9 0
v 0.4 3.9 0
v 1.1 3.9 0
v 1.2 3.9 0
v 2 3.9 0
v 0.3 3.9 -0.1
v 0.4 3.9 -0.1
v 0.9 3.9 -0.1
v 1.1 3.9 -0.1
v 1.2 3.9 -0.1
v 1.6 3.9 -0.1
v 1.7 3.9 -0.1
v 0.3 3.9 -0.2
v 0.4 3.9 -0.2
v 0.9 3.9 -0.2
v 1.1 3.9 -0.2
v 1.6 3.9 -0.2
v 1.7 3.9 -0.2
v 1.8 3.9 -0.2
v 0.5 3.9 -0.3
v 0.6 3.9 -0.3
v 0.9 3.9 -0.3
v 1 3.9 -0.3
v 1.7 3.9 -0.3
v 1.8 3.9 -0.3
v 0.5 3.9 -0.4
v 0.6 3.9 -0.4
v 0.9 3.9 -0.4
v 1 3.9 -0.4
v 0.8 3.9 -0.5
v 0.9 3.9 -0.5
v 1.1 3.9 -0.5
v 1.2 3.9 -0.5
v 1.3 3.9 -0.5
v 1.4 3.9 -0.5
v 0.3 3.9 -0.6
v 0.5 3.9 -0.6
v 0.8 3.9 -0.6
v 0.9 3.9 -0.6
v 1.1 3.9 -0.6
v 1.2 3.9 -0.6
v 1.3 3.9 -0.6
v 1.4 3.9 -0.6
v 1.5 3.9 -0.6
v 1.7 3.9 -0.6
v 1.8 3.9 -0.6
v 1.9 3.9 -0.6
v 0.1 3.9 -0.7
v 0.2 3.9 -0.7
v 0.3 3.9 -0.7
v 0.5 3.9 -0.7
v 1.5 3.9 -0.7
v 1.7 3.9 -0.7
v 1.8 3.9 -0.7
v 1.9 3.9 -0.7
v 0.8 3.9 -0.8
v 0.9 3.9 -0.8
v 1.1 3.9 -0.8
v 1.2 3.9 -0.8
v 0.1 3.9 -0.9
v 0.2 3.9 -0.9
v 0.8 3.9 -0.9
v 0.9 3.9 -0.9
v 1.1 3.9 -0.9
v 1.2 3.9 -0.9
v 1.9 3.9 -0.9
v 2 3.9 -0.9
v 0.1 3.9 -1.1
v 0.2 3.9 -1.1
v 0.4 3.9 -1.1
v 0.5 3.9 -1.1
v 0.9 3.9 -1.1
v 1.1 3.9 -1.1
v 1.5 3.9 -1.1
v 1.6 3.9 -1.1
v 1.9 3.9 -1.1
v 2 3.9 -1.1
v 0.9 3.9 -1.2
v 1.1 3.9 -1.2
v 0.1 3.9 -1.3
v 0.2 3.9 -1.3
v 0.4 3.9 -1.3
v 0.5 3.9 -1.3
v 1.5 3.9 -1.3
v 1.6 3.9 -1.3
v 1.8 3.9 -1.3
v 1.9 3.9 -1.3
v 1.3 3.9 -1.4
v 1.4 3.9 -1.4
v 1.8 3.9 -1.4
v 1.9 3.9 -1.4
v 1.3 3.9 -1.5
v 1.4 3.9 -1.5
v 0.3 3.9 -1.6
v 0.5 3.9 -1.6
v 0.6 3.9 -1.6
v 0.9 3.9 -1.6
v 1 3.9 -1.6
v 1.4 3.9 -1.6
v 1.7 3.9 -1.6
v 0.1 3.9 -1.7
v 0.2 3.9 -1.7
v 0.5 3.9 -1.7
v 0.6 3.9 -1.7
v 0.9 3.9 -1.7
v 1 3.9 -1.7
v 1.7 3.9 -1.7
v 1.9 3.9 -1.7
v 0.1 3.9 -1.8
v 0.2 3.9 -1.8
v 0.3 3.9 -1.8
v 0.6 3.9 -1.8
v 1.4 3.9 -1.8
v 1.7 3.9 -1.8
v 1.9 3.9 -1.8
v 0.3 3.9 -1.9
v 0.4 3.9 -1.9
v 1.1 3.9 -1.9
v 1.2 3.9 -1.9
v 0 3.9 -2
v 0.3 3.9 -2
v 0.4 3.9 -2
v 1.1 3.9 -2
v 1.2 3.9 -2
v 2 3.9 -2
v 1.7 4 -0.2
v 1.8 4 -0.2
v 0.5 4 -0.3
v 0.6 4 -0.3
v 1.7 4 -0.3
v 1.8 4 -0.3
v 0.5 4 -0.4
v 0.6 4 -0.4
v 0.8 4 -0.8
v 0.9 4 -0.8
v 1.1 4 -0.8
v 1.2 4 -0.8
v 0.8 4 -0.9
v 0.9 4 -0.9
v 1.1 4 -0.9
v 1.2 4 -0.9
v 0.5 4 -1.6
v 0.6 4 -1.6
v 0.1 4 -1.7
v 0.2 4 -1.7
v 0.5 4 -1.7
v 0.6 4 -1.7
v 1.7 4 -1.7
v 1.9 4 -1.7
v 0.1 4 -1.8
v 0.2 4 -1.8
v 1.7 4 -1.8
v 1.9 4 -1.8

# faces
f 3/3/1 2/3/1 1/3/1
f 4/3/1 2/3/1 3/3/1
f 7/5/1 6/5/1 5/5/1
f 8/5/1 6/5/1 7/5/1
f 11/4/1 10/4/1 9/4/1
f 12/4/1 10/4/1 11/4/1
f 17/5/1 14/5/1 13/5/1
f 18/5/1 14/5/1 17/5/1
f 19/5/1 16/5/1 15/5/1
f 20/5/1 16/5/1 19/5/1
f 23/5/1 22/5/1 21/5/1
f 24/5/1 22/5/1 23/5/1
f 27/5/1 26/5/1 25/5/1
f 28/5/1 26/5/1 27/5/1
f 33/5/1 30/5/1 29/5/1
f 34/5/1 30/5/1 33/5/1
f 35/5/1 32/5/1 31/5/1
f 36/5/1 32/5/1 35/5/1
f 37/5/2 38/5/2 39/5/2
f 39/5/2 38/5/2 40/5/2
f 41/5/2 42/5/2 45/5/2
f 45/5/2 42/5/2 46/5/2
f 43/5/2 44/5/2 47/5/2
f 47/5/2 44/5/2 48/5/2
f 49/5/2 50/5/2 51/5/2
f 51/5/2 50/5/2 52/5/2
f 53/5/2 54/5/2 55/5/2
f 55/5/2 54/5/2 56/5/2
f 57/4/2 58/4/2 59/4/2
f 59/4/2 58/4/2 60/4/2
f 61/5/2 62/5/2 63/5/2
f 63/5/2 62/5/2 64/5/2
f 65/5/2 66/5/2 67/5/2
f 67/5/2 66/5/2 68/5/2
f 69/3/2 70/3/2 71/3/2
f 71/3/2 70/3/2 72/3/2
f 69/3/2 71/3/2 73/3/2
f 71/2/2 72/2/2 74/2/2
f 73/3/2 71/3/2 74/3/2
f 72/3/2 70/3/2 75/3/2
f 74/2/2 72/2/2 75/2/2
f 75/3/2 70/3/2 76/3/2
f 79/3/3 78/3/3 77/3/3
f 80/3/3 78/3/3 79/3/3
f 81/3/3 79/3/3 77/3/3
f 81/2/3 80/2/3 79/2/3
f 82/2/3 80/2/3 81/2/3
f 83/3/3 81/3/3 77/3/3
f 83/3/3 82/3/3 81/3/3
f 84/3/3 82/3/3 83/3/3
f 85/3/3 83/3/3 77/3/3
f 85/2/3 84/2/3 83/2/3
f 86/2/3 84/2/3 85/2/3
f 87/3/3 85/3/3 77/3/3
f 87/3/3 86/3/3 85/3/3
f 88/3/3 86/3/3 87/3/3
f 93/4/3 90/4/3 89/4/3
f 94/4/3 90/4/3 93/4/3
f 95/5/3 92/5/3 91/5/3
f 96/5/3 92/5/3 95/5/3
f 99/5/3 98/5/3 97/5/3
f 100/5/3 98/5/3 99/5/3
f 103/5/3 102/5/3 101/5/3
f 104/5/3 102/5/3 103/5/3
f 107/5/3 106/5/3 105/5/3
f 108/5/3 106/5/3 107/5/3
f 111/5/3 110/5/3 109/5/3
f 112/5/3 110/5/3 111/5/3
f 115/5/3 114/5/3 113/5/3
f 116/5/3 114/5/3 115/5/3
f 119/5/3 118/5/3 117/5/3
f 120/5/3 118/5/3 119/5/3
f 121/5/4 122/5/4 123/5/4
f 123/5/4 122/5/4 124/5/4
f 125/5/4 126/5/4 127/5/4
f 127/5/4 126/5/4 128/5/4
f 129/5/4 130/5/4 131/5/4
f 131/5/4 130/5/4 132/5/4
f 133/5/4 134/5/4 135/5/4
f 135/5/4 134/5/4 136/5/4
f 137/5/4 138/5/4 139/5/4
f 139/5/4 138/5/4 140/5/4
f 141/5/4 142/5/4 145/5/4
f 145/5/4 142/5/4 146/5/4
f 143/4/4 144/4/4 149/4/4
f 149/4/4 144/4/4 150/4/4
f 147/5/4 148/5/4 151/5/4
f 151/5/4 148/5/4 152/5/4
f 153/3/4 154/3/4 155/3/4
f 155/3/4 154/3/4 156/3/4
f 153/3/4 155/3/4 157/3/4
f 155/2/4 156/2/4 157/2/4
f 157/2/4 156/2/4 158/2/4
f 153/3/4 157/3/4 159/3/4
f 157/3/4 158/3/4 159/3/4
f 159/3/4 158/3/4 160/3/4
f 153/3/4 159/3/4 161/3/4
f 159/2/4 160/2/4 161/2/4
f 161/2/4 160/2/4 162/2/4
f 153/3/4 161/3/4 163/3/4
f 161/3/4 162/3/4 163/3/4
f 163/3/4 162/3/4 164/3/4
f 167/4/5 166/4/5 165/4/5
f 168/4/5 166/4/5 167/4/5
f 171/3/5 170/3/5 169/3/5
f 172/3/5 170/3/5 171/3/5
f 173/3/5 171/3/5 169/3/5
f 174/3/5 170/3/5 172/3/5
f 175/3/5 173/3/5 169/3/5
f 175/3/5 174/3/5 173/3/5
f 176/3/5 170/3/5 174/3/5
f 176/3/5 174/3/5 175/3/5
f 177/3/6 178/3/6 183/3/6
f 178/2/6 179/2/6 183/2/6
f 179/3/6 180/3/6 184/3/6
f 183/2/6 179/2/6 184/2/6
f 184/3/6 180/3/6 185/3/6
f 180/2/6 181/2/6 186/2/6
f 185/3/6 180/3/6 186/3/6
f 181/3/6 182/3/6 187/3/6
f 186/2/6 181/2/6 187/2/6
f 187/3/6 182/3/6 188/3/6
f 188/3/6 182/3/6 189/3/6
f 177/3/6 183/3/6 190/3/6
f 183/4/6 184/4/6 190/4/6
f 184/3/6 185/3/6 191/3/6
f 190/4/6 184/4/6 191/4/6
f 185/4/6 186/4/6 192/4/6
f 191/3/6 185/3/6 192/3/6
f 186/3/6 187/3/6 193/3/6
f 192/4/6 186/4/6 193/4/6
f 187/3/6 188/3/6 193/3/6
f 188/4/6 189/4/6 194/4/6
f 193/3/6 188/3/6 194/3/6
f 189/3/6 182/3/6 195/3/6
f 194/4/6 189/4/6 195/4/6
f 195/3/6 182/3/6 196/3/6
f 190/3/6 191/3/6 197/3/6
f 193/3/6 194/3/6 197/3/6
f 194/3/6 195/3/6 197/3/6
f 191/3/6 192/3/6 197/3/6
f 192/3/6 193/3/6 197/3/6
f 197/3/6 195/3/6 198/3/6
f 198/3/6 195/3/6 199/3/6
f 199/3/6 195/3/6 200/3/6
f 200/3/6 195/3/6 201/3/6
f 196/3/6 182/3/6 202/3/6
f 190/3/6 197/3/6 203/3/6
f 198/3/6 199/3/6 204/3/6
f 199/2/6 200/2/6 205/2/6
f 204/3/6 199/3/6 205/3/6
f 200/3/6 201/3/6 206/3/6
f 205/2/6 200/2/6 206/2/6
f 201/3/6 202/3/6 206/3/6
f 204/3/6 205/3/6 207/3/6
f 203/3/6 204/3/6 207/3/6
f 205/3/6 206/3/6 207/3/6
f 207/3/6 206/3/6 208/3/6
f 206/3/6 202/3/6 209/3/6
f 208/3/6 206/3/6 209/3/6
f 209/3/6 202/3/6 210/3/6
f 210/3/6 202/3/6 211/3/6
f 211/3/6 202/3/6 212/3/6
f 177/3/6 190/3/6 213/3/6
f 190/3/6 203/3/6 213/3/6
f 203/3/6 207/3/6 213/3/6
f 213/3/6 207/3/6 214/3/6
f 207/4/6 208/4/6 215/4/6
f 214/3/6 207/3/6 215/3/6
f 208/3/6 209/3/6 216/3/6
f 215/4/6 208/4/6 216/4/6
f 209/4/6 210/4/6 217/4/6
f 216/3/6 209/3/6 217/3/6
f 210/3/6 211/3/6 218/3/6
f 217/4/6 210/4/6 218/4/6
f 211/2/6 212/2/6 219/2/6
f 218/3/6 211/3/6 219/3/6
f 212/3/6 202/3/6 220/3/6
f 219/2/6 212/2/6 220/2/6
f 220/3/6 202/3/6 221/3/6
f 221/3/6 202/3/6 222/3/6
f 202/3/6 182/3/6 223/3/6
f 222/3/6 202/3/6 223/3/6
f 223/3/6 182/3/6 224/3/6
f 177/3/6 213/3/6 225/3/6
f 225/3/6 213/3/6 226/3/6
f 213/4/6 214/4/6 227/4/6
f 226/3/6 213/3/6 227/3/6
f 218/3/6 219/3/6 228/3/6
f 227/4/6 214/4/6 228/4/6
f 217/3/6 218/3/6 228/3/6
f 216/3/6 217/3/6 228/3/6
f 214/3/6 215/3/6 228/3/6
f 215/3/6 216/3/6 228/3/6
f 220/3/6 221/3/6 228/3/6
f 219/3/6 220/3/6 228/3/6
f 221/4/6 222/4/6 229/4/6
f 228/3/6 221/3/6 229/3/6
f 222/3/6 223/3/6 230/3/6
f 229/4/6 222/4/6 230/4/6
f 223/2/6 224/2/6 231/2/6
f 230/3/6 223/3/6 231/3/6
f 224/3/6 182/3/6 232/3/6
f 231/2/6 224/2/6 232/2/6
f 226/3/6 227/3/6 233/3/6
f 227/3/6 228/3/6 233/3/6
f 231/3/6 232/3/6 233/3/6
f 230/3/6 231/3/6 233/3/6
f 228/3/6 229/3/6 233/3/6
f 229/3/6 230/3/6 233/3/6
f 233/3/6 232/3/6 234/3/6
f 234/3/6 232/3/6 235/3/6
f 235/3/6 232/3/6 236/3/6
f 225/2/6 226/2/6 237/2/6
f 177/3/6 225/3/6 237/3/6
f 226/3/6 233/3/6 238/3/6
f 237/2/6 226/2/6 238/2/6
f 238/3/6 233/3/6 239/3/6
f 234/3/6 235/3/6 240/3/6
f 240/3/6 235/3/6 241/3/6
f 236/3/6 232/3/6 242/3/6
f 232/3/6 182/3/6 243/3/6
f 242/3/6 232/3/6 243/3/6
f 243/3/6 182/3/6 244/3/6
f 240/3/6 241/3/6 245/3/6
f 241/3/6 242/3/6 245/3/6
f 238/3/6 239/3/6 245/3/6
f 242/3/6 243/3/6 245/3/6
f 177/3/6 237/3/6 245/3/6
f 239/3/6 240/3/6 245/3/6
f 237/3/6 238/3/6 245/3/6
f 245/3/6 243/3/6 246/3/6
f 246/3/6 243/3/6 247/3/6
f 247/3/6 243/3/6 248/3/6
f 248/3/6 243/3/6 249/3/6
f 249/3/6 243/3/6 250/3/6
f 250/3/6 243/3/6 251/3/6
f 251/3/6 243/3/6 252/3/6
f 243/2/6 244/2/6 253/2/6
f 252/3/6 243/3/6 253/3/6
f 253/2/6 244/2/6 254/2/6
f 248/3/6 249/3/6 255/3/6
f 249/4/6 250/4/6 255/4/6
f 250/3/6 251/3/6 256/3/6
f 255/4/6 250/4/6 256/4/6
f 177/3/6 245/3/6 257/3/6
f 245/2/6 246/2/6 257/2/6
f 246/3/6 247/3/6 258/3/6
f 257/2/6 246/2/6 258/2/6
f 247/4/6 248/4/6 259/4/6
f 258/3/6 247/3/6 259/3/6
f 255/3/6 256/3/6 260/3/6
f 259/4/6 248/4/6 260/4/6
f 248/3/6 255/3/6 260/3/6
f 251/4/6 252/4/6 261/4/6
f 260/3/6 256/3/6 261/3/6
f 256/3/6 251/3/6 261/3/6
f 252/3/6 253/3/6 262/3/6
f 261/4/6 252/4/6 262/4/6
f 253/3/6 254/3/6 262/3/6
f 262/3/6 254/3/6 263/3/6
f 263/3/6 254/3/6 264/3/6
f 259/3/6 260/3/6 265/3/6
f 260/3/6 261/3/6 265/3/6
f 258/3/6 259/3/6 265/3/6
f 262/3/6 263/3/6 265/3/6
f 261/3/6 262/3/6 265/3/6
f 257/3/6 258/3/6 265/3/6
f 265/3/6 263/3/6 266/3/6
f 263/2/6 264/2/6 267/2/6
f 266/3/6 263/3/6 267/3/6
f 264/3/6 254/3/6 268/3/6
f 267/2/6 264/2/6 268/2/6
f 265/2/6 266/2/6 269/2/6
f 257/3/6 265/3/6 269/3/6
f 266/3/6 267/3/6 270/3/6
f 269/2/6 266/2/6 270/2/6
f 267/3/6 268/3/6 270/3/6
f 257/3/6 269/3/6 271/3/6
f 269/3/6 270/3/6 271/3/6
f 271/3/6 270/3/6 272/3/6
f 272/3/6 270/3/6 273/3/6
f 273/3/6 270/3/6 274/3/6
f 274/3/6 270/3/6 275/3/6
f 270/3/6 268/3/6 276/3/6
f 275/3/6 270/3/6 276/3/6
f 276/3/6 268/3/6 277/3/6
f 177/3/6 257/3/6 278/3/6
f 257/3/6 271/3/6 278/3/6
f 278/3/6 271/3/6 279/3/6
f 271/4/6 272/4/6 280/4/6
f 273/3/6 274/3/6 281/3/6
f 274/2/6 275/2/6 282/2/6
f 281/3/6 274/3/6 282/3/6
f 275/3/6 276/3/6 283/3/6
f 282/2/6 275/2/6 283/2/6
f 277/3/6 268/3/6 284/3/6
f 276/4/6 277/4/6 284/4/6
f 268/3/6 254/3/6 285/3/6
f 284/3/6 268/3/6 285/3/6
f 177/3/6 278/3/6 286/3/6
f 279/3/6 271/3/6 287/3/6
f 280/4/6 281/4/6 288/4/6
f 271/4/6 280/4/6 288/4/6
f 287/3/6 271/3/6 288/3/6
f 282/3/6 283/3/6 289/3/6
f 288/4/6 281/4/6 289/4/6
f 281/3/6 282/3/6 289/3/6
f 276/4/6 284/4/6 290/4/6
f 289/3/6 283/3/6 290/3/6
f 283/3/6 276/3/6 290/3/6
f 290/4/6 284/4/6 291/4/6
f 285/3/6 254/3/6 292/3/6
f 286/3/6 287/3/6 293/3/6
f 291/3/6 292/3/6 293/3/6
f 288/3/6 289/3/6 293/3/6
f 290/3/6 291/3/6 293/3/6
f 289/3/6 290/3/6 293/3/6
f 287/3/6 288/3/6 293/3/6
f 293/3/6 292/3/6 294/3/6
f 294/3/6 292/3/6 295/3/6
f 295/3/6 292/3/6 296/3/6
f 177/3/6 286/3/6 297/3/6
f 286/3/6 293/3/6 297/3/6
f 293/2/6 294/2/6 298/2/6
f 297/3/6 293/3/6 298/3/6
f 294/3/6 295/3/6 299/3/6
f 298/2/6 294/2/6 299/2/6
f 295/2/6 296/2/6 300/2/6
f 299/3/6 295/3/6 300/3/6
f 296/3/6 292/3/6 301/3/6
f 300/2/6 296/2/6 301/2/6
f 292/3/6 254/3/6 302/3/6
f 301/3/6 292/3/6 302/3/6
f 303/5/6 304/5/6 307/5/6
f 307/5/6 304/5/6 308/5/6
f 305/5/6 306/5/6 309/5/6
f 309/5/6 306/5/6 310/5/6
f 311/5/6 312/5/6 315/5/6
f 315/5/6 312/5/6 316/5/6
f 313/5/6 314/5/6 317/5/6
f 317/5/6 314/5/6 318/5/6
f 319/5/6 320/5/6 323/5/6
f 323/5/6 320/5/6 324/5/6
f 321/5/6 322/5/6 327/5/6
f 327/5/6 322/5/6 328/5/6
f 325/5/6 326/5/6 329/5/6
f 329/5/6 326/5/6 330/5/6
